<svg width="512" height="512" viewBox="0 0 512 512" fill="none" xmlns="http://www.w3.org/2000/svg">
<path d="M0 0H512V512H0V0Z" fill="#FFEB3B" fill-opacity="0.8"/>
<path d="M0 0H512V512H0V0Z" fill="#FFD700" fill-opacity="0.5"/>
<path d="M409.912 145.758L376.868 84.0172C373.806 78.29 368.63 74.8442 363.08 74.8298L296.674 74.6574C287.504 74.6336 280.048 83.8133 280.019 95.1635L279.646 239.007L212.399 238.833C211.162 231.192 208.435 224.273 204.782 218.264L229.895 218.329C237.514 218.349 244.166 211.948 246.038 202.808L276.622 54.057L313.329 54.1522C317.916 54.1641 321.641 49.5775 321.656 43.8992C321.671 38.2209 317.969 33.615 313.382 33.6031L270.218 33.4911C266.417 33.4812 263.093 36.665 262.146 41.2243L250.966 95.1916L230.685 95.0363L185.889 39.2934C182.783 35.4291 178.567 33.2533 174.167 33.2419C169.762 33.2304 165.535 35.3844 162.415 39.2325L117.324 94.7421L97.4024 94.6904C91.647 94.6755 86.2977 98.3468 83.2548 104.401C80.2119 110.455 79.9212 118.017 82.4779 124.394L115.468 206.676C118.261 213.643 123.999 218.055 130.286 218.071L138.796 218.093C135.112 224.084 132.349 230.988 131.073 238.623L105.33 238.556C100.742 238.544 97.0172 243.13 97.0025 248.809C96.9878 254.487 100.689 259.093 105.277 259.105L131.02 259.172C134.816 282.6 151.532 300.323 171.576 300.375C191.62 300.427 208.427 282.791 212.345 259.383L296.194 259.6L297.035 259.602C300.832 283.031 317.547 300.754 337.591 300.806C357.635 300.858 374.442 283.222 378.36 259.813L395.803 259.859C404.973 259.883 412.428 250.703 412.458 239.353L412.671 157.163C412.682 153.108 411.724 149.14 409.912 145.758ZM174.114 53.791L207.21 94.9753L140.804 94.803L174.114 53.791ZM171.629 279.826C157.878 279.791 146.763 265.959 146.807 248.938C146.851 231.917 158.038 218.143 171.789 218.179C185.541 218.215 196.656 232.046 196.612 249.067C196.567 266.088 185.381 279.862 171.629 279.826ZM130.339 197.522L97.3491 115.24L246.763 115.627L229.948 197.781L130.339 197.522ZM296.621 95.2074L363.027 95.3797L390.563 146.831L296.487 146.58L296.621 95.2074ZM337.644 280.257C323.893 280.221 312.778 266.39 312.822 249.369C312.866 232.348 324.053 218.574 337.804 218.61C351.556 218.645 362.671 232.477 362.627 249.498C362.583 266.519 351.396 280.293 337.644 280.257ZM395.99 187.937L379.388 187.894L379.335 208.443L395.936 208.486L395.856 239.31L378.414 239.264C374.617 215.836 357.901 198.113 337.858 198.061C317.814 198.009 301.006 215.645 297.088 239.053L296.247 239.051L296.434 167.129L396.043 167.395L395.99 187.937Z" fill="black"/>
<path d="M405.458 422.51C405.067 422.119 404.774 421.655 404.579 421.118C404.433 420.581 404.042 420.142 403.407 419.8C403.31 419.067 403.163 418.237 402.968 417.31C402.821 416.333 402.65 415.356 402.455 414.38C402.309 413.354 402.187 412.354 402.089 411.377C402.04 410.352 402.089 409.424 402.235 408.594C402.333 408.154 402.479 407.739 402.675 407.349C402.919 406.958 403.139 406.592 403.334 406.25C403.578 405.859 403.749 405.469 403.847 405.078C403.993 404.688 404.018 404.297 403.92 403.906C404.213 403.857 404.384 403.711 404.433 403.467C404.53 403.174 404.774 403.076 405.165 403.174C405.507 402.1 405.873 401.099 406.264 400.171C406.654 399.243 407.069 398.34 407.509 397.461C407.948 396.582 408.388 395.703 408.827 394.824C409.315 393.896 409.755 392.871 410.146 391.748C409.315 390.967 408.705 390.137 408.314 389.258C407.973 388.33 407.704 387.402 407.509 386.475C407.313 385.547 407.167 384.619 407.069 383.691C406.972 382.715 406.776 381.738 406.483 380.762C407.069 379.883 407.777 379.175 408.607 378.638C409.438 378.052 410.341 377.588 411.317 377.246C412.343 376.855 413.441 376.562 414.613 376.367C415.785 376.123 417.03 375.854 418.349 375.562C420.692 374.829 422.792 374.268 424.647 373.877C426.503 373.438 428.31 373.096 430.067 372.852C431.825 372.559 433.656 372.314 435.561 372.119C437.465 371.875 439.662 371.533 442.152 371.094C442.201 371.24 442.274 371.313 442.372 371.313C442.519 371.313 442.689 371.313 442.885 371.313C443.031 371.655 443.3 371.826 443.69 371.826C443.69 371.68 443.666 371.558 443.617 371.46C443.617 371.313 443.617 371.191 443.617 371.094C443.715 371.094 443.837 371.118 443.983 371.167C444.179 371.216 444.325 371.265 444.423 371.313C444.569 371.362 444.691 371.362 444.789 371.313C444.887 371.216 444.911 371.045 444.862 370.801C445.448 371.826 446.205 372.681 447.133 373.364C448.061 373.999 449.086 374.561 450.209 375.049C450.258 375.488 450.258 375.806 450.209 376.001C450.209 376.196 450.185 376.392 450.136 376.587C450.087 376.733 450.062 376.929 450.062 377.173C450.062 377.368 450.111 377.661 450.209 378.052C449.428 379.37 448.524 380.396 447.499 381.128C446.522 381.86 445.473 382.422 444.35 382.812C443.227 383.203 442.03 383.496 440.761 383.691C439.54 383.887 438.271 384.106 436.952 384.351C435.683 384.546 434.389 384.839 433.07 385.229C431.752 385.62 430.458 386.206 429.188 386.987C428.798 386.841 428.432 386.792 428.09 386.841C427.797 386.841 427.479 386.89 427.138 386.987C426.796 387.085 426.405 387.183 425.966 387.28C425.575 387.378 425.087 387.378 424.501 387.28C424.11 387.622 423.646 387.866 423.109 388.013C422.621 388.159 422.108 388.306 421.571 388.452C421.815 388.989 421.913 389.526 421.864 390.063C421.864 390.601 421.938 391.064 422.084 391.455C424.135 391.65 426.405 391.65 428.896 391.455C431.386 391.211 433.827 391.04 436.22 390.942C436.269 391.187 436.244 391.357 436.146 391.455C436.049 391.553 436 391.724 436 391.968C436.439 392.261 436.854 392.627 437.245 393.066C437.636 393.506 438.026 393.945 438.417 394.385C438.856 394.775 439.296 395.117 439.735 395.41C440.175 395.654 440.688 395.752 441.273 395.703C441.518 396.191 441.688 396.704 441.786 397.241C441.884 397.778 441.811 398.34 441.566 398.926C440.59 399.561 439.638 400.22 438.71 400.903C437.782 401.538 436.806 402.124 435.78 402.661C434.804 403.198 433.729 403.638 432.558 403.979C431.386 404.321 430.116 404.468 428.749 404.419C428.505 404.419 428.285 404.419 428.09 404.419C427.943 404.419 427.748 404.321 427.504 404.126C427.016 404.37 426.356 404.468 425.526 404.419C424.745 404.321 424.086 404.395 423.549 404.639C422.865 404.395 422.06 404.272 421.132 404.272C420.253 404.272 419.472 404.15 418.788 403.906C417.909 405.176 417.079 406.519 416.298 407.935C415.517 409.302 414.833 410.767 414.247 412.329C416.249 412.622 417.909 412.744 419.228 412.695C420.546 412.646 421.791 412.549 422.963 412.402C424.135 412.256 425.331 412.109 426.552 411.963C427.821 411.816 429.359 411.768 431.166 411.816C432.387 411.23 433.778 410.84 435.341 410.645C436.952 410.4 438.441 410.059 439.809 409.619C440.297 409.766 440.712 410.059 441.054 410.498C441.396 410.889 441.713 411.304 442.006 411.743C442.348 412.134 442.689 412.476 443.031 412.769C443.373 413.062 443.812 413.159 444.35 413.062C444.594 413.306 444.74 413.599 444.789 413.94C444.887 414.282 444.96 414.6 445.009 414.893C445.106 415.186 445.229 415.43 445.375 415.625C445.521 415.771 445.79 415.82 446.181 415.771C445.253 417.676 444.203 419.141 443.031 420.166C441.908 421.191 440.614 421.997 439.149 422.583C437.733 423.12 436.122 423.535 434.315 423.828C432.558 424.072 430.58 424.39 428.383 424.78C427.846 424.878 427.382 424.878 426.991 424.78C426.649 424.634 426.283 424.561 425.893 424.561C424.525 424.805 422.89 425.049 420.985 425.293C419.13 425.537 417.25 425.635 415.346 425.586C413.441 425.537 411.61 425.293 409.853 424.854C408.095 424.414 406.63 423.633 405.458 422.51Z" fill="black"/>
<path d="M354.921 418.701C354.677 418.75 354.457 418.579 354.262 418.188C354.066 417.749 353.847 417.334 353.603 416.943H354.408C354.066 415.869 353.969 414.893 354.115 414.014C354.311 413.086 354.53 412.207 354.774 411.377C355.019 410.498 355.214 409.668 355.36 408.887C355.556 408.057 355.482 407.202 355.141 406.323C355.385 406.47 355.556 406.421 355.653 406.177C355.8 405.884 355.897 405.542 355.946 405.151C356.044 404.712 356.068 404.272 356.02 403.833C356.02 403.345 355.995 402.954 355.946 402.661C356.581 401.147 357.069 399.585 357.411 397.974C357.802 396.362 358.144 394.775 358.437 393.213C358.729 391.602 359.047 390.063 359.389 388.599C359.779 387.085 360.268 385.669 360.854 384.351C361.537 384.253 362.245 384.351 362.978 384.644C363.759 384.888 364.271 385.205 364.516 385.596C366.029 384.424 367.372 383.008 368.544 381.348C369.716 379.688 370.888 378.076 372.06 376.514C373.28 374.902 374.647 373.486 376.161 372.266C377.675 371.045 379.555 370.312 381.801 370.068C382.973 370.898 384.291 371.802 385.756 372.778C387.221 373.706 388.417 374.878 389.345 376.294C389.735 376.538 390.102 376.807 390.443 377.1C390.834 377.344 391.225 377.588 391.615 377.832V378.931C392.299 379.565 392.86 380.322 393.3 381.201C393.788 382.031 394.203 382.935 394.545 383.911C394.936 384.839 395.302 385.791 395.644 386.768C395.985 387.744 396.376 388.647 396.815 389.478C396.718 389.771 396.669 390.039 396.669 390.283C396.718 390.479 396.767 390.698 396.815 390.942C396.913 391.138 396.986 391.382 397.035 391.675C397.084 391.919 397.108 392.236 397.108 392.627C396.913 395.215 396.059 397.314 394.545 398.926C393.08 400.488 391.273 401.782 389.125 402.808C387.025 403.784 384.779 404.639 382.387 405.371C379.994 406.055 377.821 406.812 375.868 407.642C375.868 407.837 375.966 407.935 376.161 407.935C376.405 407.935 376.479 408.081 376.381 408.374C377.846 409.253 378.969 409.961 379.75 410.498C380.58 411.035 381.337 411.499 382.021 411.89C382.753 412.231 383.534 412.524 384.364 412.769C385.243 413.013 386.439 413.306 387.953 413.647C389.467 413.989 390.639 414.282 391.469 414.526C392.348 414.722 393.129 414.893 393.812 415.039C394.496 415.137 395.229 415.234 396.01 415.332C396.791 415.43 397.841 415.552 399.159 415.698C399.696 416.235 400.136 416.87 400.478 417.603C400.819 418.335 401.063 419.067 401.21 419.8C401.356 420.532 401.381 421.24 401.283 421.924C401.234 422.559 401.039 423.071 400.697 423.462C400.746 423.657 400.868 423.755 401.063 423.755C401.308 423.706 401.552 423.706 401.796 423.755C401.454 423.999 401.161 424.292 400.917 424.634C400.673 424.976 400.429 425.317 400.185 425.659C399.94 426.001 399.647 426.318 399.306 426.611C399.013 426.904 398.622 427.075 398.134 427.124C396.376 427.808 394.13 427.832 391.396 427.197C388.661 426.562 385.17 425.439 380.922 423.828C378.822 423.047 377.113 422.339 375.795 421.704C374.477 421.069 373.329 420.459 372.353 419.873C371.376 419.238 370.473 418.579 369.643 417.896C368.812 417.163 367.86 416.309 366.786 415.332C366.64 415.381 366.542 415.479 366.493 415.625C366.493 415.771 366.42 415.869 366.273 415.918C366.029 417.871 365.639 419.458 365.102 420.679C364.613 421.899 363.881 423.145 362.904 424.414C362.123 424.268 361.586 424.341 361.293 424.634C361.049 424.927 360.731 425.195 360.341 425.439C359.853 425.537 359.486 425.513 359.242 425.366C358.998 425.269 358.778 425.146 358.583 425C358.388 424.854 358.168 424.707 357.924 424.561C357.68 424.414 357.289 424.365 356.752 424.414C356.605 423.975 356.459 423.56 356.312 423.169C356.166 422.729 355.775 422.534 355.141 422.583C355.287 422.144 355.336 421.777 355.287 421.484C355.238 421.143 355.165 420.85 355.067 420.605C354.97 420.312 354.872 420.02 354.774 419.727C354.726 419.434 354.774 419.092 354.921 418.701ZM379.384 385.229C378.749 386.157 378.041 387.012 377.26 387.793C376.479 388.525 375.697 389.307 374.916 390.137C374.184 390.918 373.524 391.797 372.938 392.773C372.353 393.701 371.938 394.824 371.693 396.143C373.744 395.898 375.893 395.337 378.139 394.458C380.385 393.53 382.509 392.651 384.511 391.821C384.267 390.015 383.632 388.574 382.606 387.5C381.581 386.377 380.507 385.62 379.384 385.229Z" fill="black"/>
<path d="M310.683 422.51C310.292 422.119 309.999 421.655 309.804 421.118C309.657 420.581 309.267 420.142 308.632 419.8C308.534 419.067 308.388 418.237 308.192 417.31C308.046 416.333 307.875 415.356 307.68 414.38C307.533 413.354 307.411 412.354 307.313 411.377C307.265 410.352 307.313 409.424 307.46 408.594C307.558 408.154 307.704 407.739 307.899 407.349C308.144 406.958 308.363 406.592 308.559 406.25C308.803 405.859 308.974 405.469 309.071 405.078C309.218 404.688 309.242 404.297 309.145 403.906C309.438 403.857 309.608 403.711 309.657 403.467C309.755 403.174 309.999 403.076 310.39 403.174C310.731 402.1 311.098 401.099 311.488 400.171C311.879 399.243 312.294 398.34 312.733 397.461C313.173 396.582 313.612 395.703 314.052 394.824C314.54 393.896 314.979 392.871 315.37 391.748C314.54 390.967 313.93 390.137 313.539 389.258C313.197 388.33 312.929 387.402 312.733 386.475C312.538 385.547 312.392 384.619 312.294 383.691C312.196 382.715 312.001 381.738 311.708 380.762C312.294 379.883 313.002 379.175 313.832 378.638C314.662 378.052 315.565 377.588 316.542 377.246C317.567 376.855 318.666 376.562 319.838 376.367C321.01 376.123 322.255 375.854 323.573 375.562C325.917 374.829 328.017 374.268 329.872 373.877C331.728 373.438 333.534 373.096 335.292 372.852C337.05 372.559 338.881 372.314 340.785 372.119C342.689 371.875 344.887 371.533 347.377 371.094C347.426 371.24 347.499 371.313 347.597 371.313C347.743 371.313 347.914 371.313 348.109 371.313C348.256 371.655 348.524 371.826 348.915 371.826C348.915 371.68 348.891 371.558 348.842 371.46C348.842 371.313 348.842 371.191 348.842 371.094C348.939 371.094 349.062 371.118 349.208 371.167C349.403 371.216 349.55 371.265 349.647 371.313C349.794 371.362 349.916 371.362 350.014 371.313C350.111 371.216 350.136 371.045 350.087 370.801C350.673 371.826 351.43 372.681 352.357 373.364C353.285 373.999 354.311 374.561 355.434 375.049C355.482 375.488 355.482 375.806 355.434 376.001C355.434 376.196 355.409 376.392 355.36 376.587C355.312 376.733 355.287 376.929 355.287 377.173C355.287 377.368 355.336 377.661 355.434 378.052C354.652 379.37 353.749 380.396 352.724 381.128C351.747 381.86 350.697 382.422 349.574 382.812C348.451 383.203 347.255 383.496 345.985 383.691C344.765 383.887 343.495 384.106 342.177 384.351C340.907 384.546 339.613 384.839 338.295 385.229C336.977 385.62 335.683 386.206 334.413 386.987C334.022 386.841 333.656 386.792 333.314 386.841C333.021 386.841 332.704 386.89 332.362 386.987C332.021 387.085 331.63 387.183 331.19 387.28C330.8 387.378 330.312 387.378 329.726 387.28C329.335 387.622 328.871 387.866 328.334 388.013C327.846 388.159 327.333 388.306 326.796 388.452C327.04 388.989 327.138 389.526 327.089 390.063C327.089 390.601 327.162 391.064 327.309 391.455C329.359 391.65 331.63 391.65 334.12 391.455C336.61 391.211 339.052 391.04 341.444 390.942C341.493 391.187 341.469 391.357 341.371 391.455C341.273 391.553 341.225 391.724 341.225 391.968C341.664 392.261 342.079 392.627 342.47 393.066C342.86 393.506 343.251 393.945 343.642 394.385C344.081 394.775 344.521 395.117 344.96 395.41C345.399 395.654 345.912 395.752 346.498 395.703C346.742 396.191 346.913 396.704 347.011 397.241C347.108 397.778 347.035 398.34 346.791 398.926C345.814 399.561 344.862 400.22 343.935 400.903C343.007 401.538 342.03 402.124 341.005 402.661C340.028 403.198 338.954 403.638 337.782 403.979C336.61 404.321 335.341 404.468 333.974 404.419C333.729 404.419 333.51 404.419 333.314 404.419C333.168 404.419 332.973 404.321 332.729 404.126C332.24 404.37 331.581 404.468 330.751 404.419C329.97 404.321 329.311 404.395 328.773 404.639C328.09 404.395 327.284 404.272 326.356 404.272C325.478 404.272 324.696 404.15 324.013 403.906C323.134 405.176 322.304 406.519 321.522 407.935C320.741 409.302 320.058 410.767 319.472 412.329C321.474 412.622 323.134 412.744 324.452 412.695C325.771 412.646 327.016 412.549 328.188 412.402C329.359 412.256 330.556 412.109 331.776 411.963C333.046 411.816 334.584 411.768 336.391 411.816C337.611 411.23 339.003 410.84 340.565 410.645C342.177 410.4 343.666 410.059 345.033 409.619C345.521 409.766 345.937 410.059 346.278 410.498C346.62 410.889 346.938 411.304 347.23 411.743C347.572 412.134 347.914 412.476 348.256 412.769C348.598 413.062 349.037 413.159 349.574 413.062C349.818 413.306 349.965 413.599 350.014 413.94C350.111 414.282 350.185 414.6 350.233 414.893C350.331 415.186 350.453 415.43 350.6 415.625C350.746 415.771 351.015 415.82 351.405 415.771C350.478 417.676 349.428 419.141 348.256 420.166C347.133 421.191 345.839 421.997 344.374 422.583C342.958 423.12 341.347 423.535 339.54 423.828C337.782 424.072 335.805 424.39 333.607 424.78C333.07 424.878 332.606 424.878 332.216 424.78C331.874 424.634 331.508 424.561 331.117 424.561C329.75 424.805 328.114 425.049 326.21 425.293C324.354 425.537 322.475 425.635 320.57 425.586C318.666 425.537 316.835 425.293 315.077 424.854C313.319 424.414 311.854 423.633 310.683 422.51Z" fill="black"/>
<path d="M255.531 422.51C255.385 422.559 255.287 422.51 255.238 422.363C255.189 422.217 255.165 422.07 255.165 421.924C255.214 421.777 255.287 421.655 255.385 421.558C255.531 421.46 255.702 421.46 255.897 421.558C255.263 420.776 254.848 420.068 254.652 419.434C254.506 418.799 254.188 418.018 253.7 417.09C253.847 416.943 253.944 416.748 253.993 416.504C254.042 416.211 254.115 415.942 254.213 415.698C254.262 415.454 254.335 415.283 254.433 415.186C254.579 415.039 254.75 415.063 254.945 415.259C254.848 414.722 254.848 414.282 254.945 413.94C255.043 413.599 255.141 413.281 255.238 412.988C255.385 412.695 255.482 412.402 255.531 412.109C255.58 411.816 255.507 411.475 255.312 411.084C256.239 409.814 256.85 408.447 257.143 406.982C257.436 405.469 257.606 404.102 257.655 402.881C258.095 402.441 258.461 401.855 258.754 401.123C259.096 400.391 259.34 399.634 259.486 398.853C259.633 398.071 259.706 397.314 259.706 396.582C259.706 395.801 259.608 395.19 259.413 394.751C259.462 394.556 259.56 394.458 259.706 394.458C259.901 394.409 260.121 394.409 260.365 394.458C260.707 392.505 260.927 390.332 261.024 387.939C261.171 385.547 261.415 383.252 261.757 381.055C262.147 378.809 262.758 376.855 263.588 375.195C264.418 373.486 265.736 372.388 267.543 371.899C267.885 373.12 268.324 374.194 268.861 375.122C269.447 376.05 270.058 376.953 270.692 377.832C271.376 378.711 272.06 379.59 272.743 380.469C273.427 381.348 274.062 382.324 274.647 383.398C274.599 384.521 274.477 385.815 274.281 387.28C274.135 388.745 273.915 390.234 273.622 391.748C273.378 393.262 273.109 394.727 272.816 396.143C272.572 397.559 272.328 398.755 272.084 399.731C272.133 399.976 272.304 400.146 272.597 400.244C272.89 400.293 272.938 400.562 272.743 401.05C274.159 400.708 275.624 400.391 277.138 400.098C278.7 399.756 280.214 399.438 281.679 399.146C283.192 398.804 284.657 398.413 286.073 397.974C287.538 397.534 288.905 396.997 290.175 396.362C290.468 394.019 290.834 391.699 291.273 389.404C291.713 387.109 291.762 384.79 291.42 382.446C291.713 382.202 291.957 381.909 292.152 381.567C292.348 381.226 292.641 381.006 293.031 380.908C292.738 379.785 292.616 378.613 292.665 377.393C292.714 376.123 292.909 374.951 293.251 373.877C293.642 372.803 294.203 371.875 294.936 371.094C295.668 370.264 296.571 369.727 297.646 369.482C298.28 370.41 298.842 371.411 299.33 372.485C299.818 373.56 300.307 374.658 300.795 375.781C301.283 376.855 301.796 377.881 302.333 378.857C302.919 379.834 303.651 380.664 304.53 381.348C304.677 383.057 304.799 384.814 304.896 386.621C304.994 388.379 305.067 390.21 305.116 392.114C304.677 394.312 304.164 396.46 303.578 398.56C303.041 400.61 302.65 402.808 302.406 405.151C302.016 405.591 301.698 406.128 301.454 406.763C301.21 407.349 300.966 407.959 300.722 408.594C300.526 409.18 300.282 409.766 299.989 410.352C299.696 410.938 299.33 411.426 298.891 411.816C299.086 412.5 299.11 413.159 298.964 413.794C298.866 414.38 299.037 415.088 299.477 415.918C299.574 417.432 299.379 418.701 298.891 419.727C298.451 420.703 297.816 421.558 296.986 422.29C296.205 422.974 295.277 423.535 294.203 423.975C293.178 424.365 292.152 424.731 291.127 425.073C290.639 424.78 290.175 424.487 289.735 424.194C289.345 423.853 288.856 423.608 288.271 423.462L288.637 422.803C287.66 421.826 286.806 420.801 286.073 419.727C285.39 418.604 285.072 417.334 285.121 415.918C285.121 415.869 285.17 415.552 285.268 414.966C285.365 414.331 285.463 413.672 285.561 412.988C285.707 412.305 285.829 411.67 285.927 411.084C286.073 410.449 286.146 410.107 286.146 410.059C284.779 410.205 283.363 410.522 281.898 411.011C280.434 411.499 278.993 412.061 277.577 412.695C276.21 413.281 274.916 413.916 273.695 414.6C272.523 415.234 271.571 415.771 270.839 416.211C270.839 416.357 270.717 416.772 270.473 417.456C270.229 418.14 269.936 418.872 269.594 419.653C269.252 420.386 268.861 421.045 268.422 421.631C268.031 422.217 267.616 422.485 267.177 422.437C267.274 422.681 267.372 422.876 267.47 423.022C267.567 423.12 267.567 423.34 267.47 423.682C266.64 423.926 265.883 424.243 265.199 424.634C264.564 425.024 263.905 425.342 263.222 425.586C262.538 425.879 261.781 426.001 260.951 425.952C260.17 425.952 259.218 425.659 258.095 425.073C258.095 424.731 257.948 424.438 257.655 424.194C257.362 423.901 257.045 423.657 256.703 423.462C256.41 423.267 256.142 423.096 255.897 422.949C255.653 422.803 255.531 422.656 255.531 422.51Z" fill="black"/>
<path d="M225.502 405.225C225.453 405.469 225.404 405.688 225.355 405.884C225.307 406.03 225.258 406.177 225.209 406.323C225.16 406.47 225.136 406.665 225.136 406.909C225.136 407.104 225.136 407.373 225.136 407.715C223.671 410.303 221.815 412.476 219.569 414.233C217.372 415.991 214.931 417.554 212.245 418.921C209.608 420.239 206.85 421.46 203.969 422.583C201.088 423.657 198.28 424.829 195.546 426.099C194.374 425.806 193.471 425.317 192.836 424.634C192.25 423.95 191.786 423.169 191.444 422.29C191.151 421.362 190.932 420.361 190.785 419.287C190.688 418.164 190.59 417.017 190.492 415.845C190.639 415.308 190.834 414.868 191.078 414.526C191.371 414.136 191.518 413.599 191.518 412.915C191.908 411.646 192.299 410.4 192.689 409.18C193.08 407.959 193.324 406.714 193.422 405.444C193.568 405.054 193.837 404.785 194.228 404.639C194.472 402.295 194.472 399.927 194.228 397.534C194.032 395.093 193.642 392.822 193.056 390.723C193.104 390.234 193.153 389.893 193.202 389.697C193.3 389.453 193.3 389.282 193.202 389.185C193.153 388.794 193.275 388.599 193.568 388.599C193.91 388.599 194.252 388.599 194.594 388.599C194.594 387.866 194.447 387.134 194.154 386.401C193.91 385.669 193.666 384.839 193.422 383.911C193.764 383.179 193.983 382.471 194.081 381.787C194.179 381.055 194.398 380.42 194.74 379.883C197.377 380.713 199.892 381.714 202.284 382.886C204.726 384.058 207.118 384.912 209.462 385.449C211.22 386.719 213.026 387.988 214.882 389.258C216.737 390.479 218.422 391.846 219.936 393.359C221.449 394.824 222.719 396.509 223.744 398.413C224.77 400.317 225.355 402.588 225.502 405.225ZM208.144 409.253C209.169 408.862 210.17 408.447 211.146 408.008C212.172 407.568 213.1 407.08 213.93 406.543C214.809 405.957 215.59 405.298 216.273 404.565C216.957 403.833 217.519 402.954 217.958 401.929C217.665 401.343 217.274 400.83 216.786 400.391C216.298 399.902 215.81 399.463 215.321 399.072C214.833 398.633 214.345 398.193 213.856 397.754C213.417 397.314 213.051 396.777 212.758 396.143C212.123 396.045 211.562 395.874 211.073 395.63C210.585 395.337 210.097 395.068 209.608 394.824C209.169 394.531 208.681 394.263 208.144 394.019C207.655 393.774 207.069 393.628 206.386 393.579C205.312 393.042 204.335 392.651 203.456 392.407C202.626 392.163 201.991 391.846 201.552 391.455C201.21 391.455 200.941 391.528 200.746 391.675C201.234 393.53 201.601 395.288 201.845 396.948C202.089 398.56 202.211 400.195 202.211 401.855C202.26 403.467 202.187 405.127 201.991 406.836C201.796 408.545 201.527 410.4 201.186 412.402C201.674 412.354 202.113 412.256 202.504 412.109C202.943 411.914 203.358 411.719 203.749 411.523C204.188 411.328 204.628 411.157 205.067 411.011C205.556 410.815 206.117 410.693 206.752 410.645C206.898 410.352 207.094 410.107 207.338 409.912C207.631 409.717 207.899 409.497 208.144 409.253Z" fill="black"/>
<path d="M162.074 411.67C161.635 411.768 161.317 412.036 161.122 412.476C160.927 412.866 160.731 413.281 160.536 413.721C160.39 414.16 160.219 414.575 160.023 414.966C159.877 415.308 159.633 415.479 159.291 415.479C159.242 415.869 159.096 416.211 158.852 416.504C158.656 416.797 158.461 417.114 158.266 417.456C158.07 417.749 157.924 418.091 157.826 418.481C157.729 418.823 157.777 419.238 157.973 419.727C157.582 420.02 157.338 420.435 157.24 420.972C157.143 421.509 157.021 422.021 156.874 422.51C156.776 422.998 156.581 423.413 156.288 423.755C155.995 424.097 155.458 424.243 154.677 424.194C154.53 424.39 154.506 424.512 154.604 424.561C154.701 424.609 154.774 424.78 154.823 425.073C154.286 424.976 153.871 425 153.578 425.146C153.334 425.342 153.017 425.464 152.626 425.513C151.698 425.22 150.917 424.707 150.282 423.975C149.696 423.242 149.159 422.437 148.671 421.558C148.231 420.63 147.816 419.702 147.426 418.774C147.084 417.847 146.742 417.041 146.4 416.357C146.547 415.82 146.571 415.308 146.474 414.819C146.376 414.282 146.205 413.843 145.961 413.501C148.354 408.423 150.966 403.003 153.798 397.241C156.63 391.479 159.315 385.791 161.854 380.176C162.978 380.615 164.076 381.128 165.15 381.714C166.273 382.251 167.274 382.886 168.153 383.618C169.081 384.351 169.862 385.205 170.497 386.182C171.132 387.109 171.547 388.159 171.742 389.331C171.645 389.624 171.522 389.746 171.376 389.697C171.278 389.6 171.181 389.624 171.083 389.771C171.278 390.015 171.376 390.186 171.376 390.283C171.425 390.381 171.425 390.479 171.376 390.576C171.376 390.674 171.376 390.82 171.376 391.016C171.376 391.162 171.449 391.382 171.596 391.675C171.4 391.626 171.254 391.65 171.156 391.748C171.107 391.846 170.961 391.846 170.717 391.748C170.912 392.285 170.961 392.725 170.863 393.066C170.814 393.408 170.717 393.726 170.57 394.019C170.424 394.263 170.302 394.556 170.204 394.897C170.106 395.19 170.131 395.581 170.277 396.069C170.131 396.069 170.009 396.118 169.911 396.216C169.862 396.265 169.813 396.338 169.765 396.436C169.716 396.484 169.643 396.558 169.545 396.655C169.496 396.704 169.398 396.704 169.252 396.655C169.398 397.729 169.447 398.804 169.398 399.878C169.35 400.952 169.301 402.051 169.252 403.174C169.252 404.248 169.276 405.396 169.325 406.616C169.374 407.788 169.545 409.009 169.838 410.278C171.596 409.253 172.987 407.935 174.013 406.323C175.087 404.712 175.941 402.905 176.576 400.903C177.26 398.901 177.772 396.753 178.114 394.458C178.456 392.163 178.822 389.819 179.213 387.427C179.652 386.987 179.994 386.45 180.238 385.815C180.482 385.181 180.702 384.521 180.897 383.838C181.093 383.105 181.288 382.397 181.483 381.714C181.679 380.981 181.923 380.322 182.216 379.736C182.948 379.834 183.559 380.078 184.047 380.469C184.584 380.811 185.072 381.201 185.512 381.641C185.951 382.031 186.415 382.422 186.903 382.812C187.392 383.154 188.002 383.374 188.734 383.472C189.32 384.302 189.857 385.107 190.346 385.889C190.834 386.67 191.151 387.5 191.298 388.379C191.054 388.77 190.858 389.209 190.712 389.697C190.614 390.186 190.492 390.674 190.346 391.162C190.199 391.65 190.004 392.114 189.76 392.554C189.516 392.944 189.174 393.286 188.734 393.579C188.588 394.849 188.393 396.021 188.148 397.095C187.953 398.12 187.733 399.146 187.489 400.171C187.294 401.196 187.123 402.271 186.977 403.394C186.83 404.468 186.781 405.664 186.83 406.982C186.439 408.105 186.024 409.302 185.585 410.571C185.146 411.841 184.804 412.988 184.56 414.014C183.778 414.648 183.168 415.405 182.729 416.284C182.289 417.163 181.825 418.042 181.337 418.921C181.142 419.116 181.02 419.165 180.971 419.067C180.922 418.97 180.751 418.896 180.458 418.848C180.507 419.043 180.507 419.189 180.458 419.287C180.409 419.385 180.336 419.482 180.238 419.58C180.189 419.629 180.141 419.727 180.092 419.873C180.092 420.02 180.141 420.215 180.238 420.459C179.555 420.752 178.944 421.167 178.407 421.704C177.87 422.241 177.284 422.729 176.649 423.169C176.063 423.608 175.331 423.901 174.452 424.048C173.622 424.194 172.523 424.023 171.156 423.535C169.154 422.07 167.372 420.386 165.81 418.481C164.296 416.577 163.051 414.307 162.074 411.67Z" fill="black"/>
<path d="M142.226 418.848C141.933 419.678 141.493 420.532 140.907 421.411C140.37 422.241 139.711 422.998 138.93 423.682C138.197 424.316 137.367 424.854 136.439 425.293C135.512 425.732 134.535 425.977 133.51 426.025C132.875 425.879 132.436 425.708 132.191 425.513C131.996 425.366 131.776 425.22 131.532 425.073C131.386 424.976 131.239 424.902 131.093 424.854C130.995 424.756 130.897 424.683 130.8 424.634L129.921 424.268L130.214 423.315C130.312 422.925 130.287 422.632 130.141 422.437C129.994 422.192 129.701 421.875 129.262 421.484C129.115 421.338 128.969 421.191 128.822 421.045C128.676 420.898 128.554 420.752 128.456 420.605L127.211 419.214L129.188 418.701C130.409 418.359 131.215 417.92 131.605 417.383C132.045 416.846 132.216 415.942 132.118 414.673C131.142 414.478 130.312 414.453 129.628 414.6C128.993 414.746 128.334 414.917 127.65 415.112C126.771 415.356 125.868 415.576 124.94 415.771C124.062 415.918 123.085 415.991 122.011 415.991C121.62 415.991 121.254 415.991 120.912 415.991C120.57 415.942 120.204 415.894 119.813 415.845L119.081 415.698C118.983 415.161 118.886 414.868 118.788 414.819C118.69 414.722 118.593 414.624 118.495 414.526C118.251 414.282 117.982 413.965 117.689 413.574C117.445 413.135 117.396 412.598 117.543 411.963C117.299 411.523 117.152 411.084 117.104 410.645C116.811 411.23 116.591 411.841 116.444 412.476L116.151 413.208L115.419 413.354C115.321 413.403 115.248 413.525 115.199 413.721C115.15 413.867 115.126 413.989 115.126 414.087L114.76 415.332C114.662 415.43 114.564 415.527 114.467 415.625C114.369 415.674 114.271 415.747 114.174 415.845C114.076 416.284 113.954 416.724 113.808 417.163C113.661 417.603 113.515 418.018 113.368 418.408C113.124 419.043 112.904 419.678 112.709 420.312C112.562 420.898 112.514 421.484 112.562 422.07L112.27 422.876C112.025 423.169 111.757 423.413 111.464 423.608C111.171 423.755 110.878 423.901 110.585 424.048C110.487 424.146 110.341 424.243 110.146 424.341C109.999 424.39 109.877 424.438 109.779 424.487L109.56 425.293L108.681 425.439C108.144 425.537 107.753 425.61 107.509 425.659C107.313 425.708 107.069 425.732 106.776 425.732L106.044 425.659C105.507 425.22 105.092 424.878 104.799 424.634C104.506 424.341 104.164 424.072 103.773 423.828C103.334 423.242 103.09 422.803 103.041 422.51C102.992 422.217 102.943 421.948 102.895 421.704C102.797 421.411 102.748 421.167 102.748 420.972C102.699 420.776 102.626 420.63 102.528 420.532L101.576 419.653L102.382 418.994L102.455 417.749C103.432 415.259 104.457 412.866 105.531 410.571C106.654 408.276 107.802 405.933 108.974 403.54C109.364 402.759 109.73 401.978 110.072 401.196C110.463 400.415 110.854 399.634 111.244 398.853C111.195 398.706 111.171 398.535 111.171 398.34C111.171 398.145 111.22 397.925 111.317 397.681C111.854 396.851 112.294 396.118 112.636 395.483C112.978 394.8 113.319 394.116 113.661 393.433C114.052 392.603 114.442 391.797 114.833 391.016C115.272 390.234 115.81 389.429 116.444 388.599L117.616 388.086C117.763 388.037 117.934 387.988 118.129 387.939C118.324 387.842 118.544 387.793 118.788 387.793L119.887 387.939C121.254 387.305 122.45 386.426 123.476 385.303C124.501 384.131 125.551 382.739 126.625 381.128L127.357 380.103L128.31 380.688C128.554 380.835 128.896 380.981 129.335 381.128C129.774 381.226 130.238 381.348 130.727 381.494C131.605 381.689 132.436 381.909 133.217 382.153C133.998 382.397 134.633 382.764 135.121 383.252C135.414 384.033 135.585 384.619 135.634 385.01C135.683 385.4 135.756 385.791 135.854 386.182C136 387.012 136.122 387.842 136.22 388.672C136.366 389.502 136.464 390.43 136.513 391.455C136.757 392.285 136.952 393.115 137.099 393.945C137.294 394.727 137.465 395.532 137.611 396.362C137.855 397.534 138.1 398.682 138.344 399.805C138.588 400.879 138.905 401.904 139.296 402.881C139.687 402.881 139.931 402.905 140.028 402.954C140.272 402.856 140.517 402.783 140.761 402.734C141.054 402.686 141.371 402.637 141.713 402.588L142.519 402.515L142.812 403.247C142.86 403.491 143.104 403.735 143.544 403.979C144.179 404.028 144.643 404.175 144.936 404.419C145.229 404.614 145.497 404.834 145.741 405.078C145.937 405.273 146.132 405.42 146.327 405.518L147.426 405.957L146.84 407.056C146.352 407.935 145.644 408.789 144.716 409.619C143.837 410.4 142.836 411.06 141.713 411.597C141.762 411.89 141.786 412.183 141.786 412.476C141.835 412.72 141.908 412.988 142.006 413.281C142.152 414.111 142.274 414.966 142.372 415.845C142.47 416.724 142.47 417.627 142.372 418.555L142.226 418.848ZM121.059 406.177C122.523 406.079 123.842 405.981 125.014 405.884C126.234 405.737 127.577 405.518 129.042 405.225C128.7 403.76 128.334 402.246 127.943 400.684C127.553 399.072 127.138 397.485 126.698 395.923L126.259 396.655C125.282 397.681 124.33 398.828 123.402 400.098C122.523 401.367 121.767 402.563 121.132 403.687C120.839 404.126 120.546 404.565 120.253 405.005C119.96 405.444 119.691 405.884 119.447 406.323C119.74 406.274 120.009 406.25 120.253 406.25C120.546 406.25 120.814 406.226 121.059 406.177Z" fill="black"/>
<path d="M61.2197 391.968C61.3662 391.235 61.4639 390.649 61.5127 390.21C61.5615 389.722 61.3906 389.209 61 388.672C61.1953 387.891 61.3418 387.28 61.4395 386.841C61.5859 386.401 61.6104 385.791 61.5127 385.01C61.9521 383.74 62.6113 382.666 63.4902 381.787C64.418 380.908 65.4189 380.176 66.4932 379.59C67.5674 378.955 68.6904 378.442 69.8623 378.052C71.0342 377.612 72.1328 377.246 73.1582 376.953C73.1582 376.758 73.0605 376.66 72.8652 376.66C72.6699 376.66 72.6211 376.538 72.7188 376.294C75.3555 375.806 77.9922 375.098 80.6289 374.17C83.3145 373.242 86.0488 372.412 88.832 371.68C91.6152 370.947 94.4717 370.508 97.4014 370.361C100.331 370.166 103.407 370.532 106.63 371.46C106.825 372.046 107.094 372.607 107.436 373.145C107.777 373.682 108.119 374.219 108.461 374.756C108.852 375.244 109.193 375.732 109.486 376.221C109.779 376.709 109.95 377.222 109.999 377.759C110.585 378.296 111.049 378.882 111.391 379.517C111.781 380.103 111.854 380.908 111.61 381.934C111.073 382.324 110.512 382.715 109.926 383.105C109.34 383.496 108.729 383.862 108.095 384.204C105.897 383.667 103.7 383.472 101.503 383.618C99.3057 383.765 97.3281 383.936 95.5703 384.131C95.0332 383.545 94.3984 383.276 93.666 383.325C92.9336 383.325 92.1523 383.447 91.3223 383.691C90.541 383.887 89.7598 384.106 88.9785 384.351C88.1973 384.546 87.4648 384.595 86.7812 384.497C86.2441 384.985 85.5361 385.327 84.6572 385.522C83.7783 385.669 82.8506 385.791 81.874 385.889C81.8252 386.133 81.874 386.304 82.0205 386.401C82.167 386.499 82.1914 386.694 82.0938 386.987C82.4355 387.427 82.8994 387.744 83.4854 387.939C84.0713 388.086 84.6572 388.232 85.2432 388.379C85.8779 388.525 86.4395 388.745 86.9277 389.038C87.416 389.282 87.7334 389.697 87.8799 390.283C88.7588 390.332 89.5156 390.576 90.1504 391.016C90.7852 391.406 91.3223 391.895 91.7617 392.48C92.2012 393.066 92.5186 393.701 92.7139 394.385C92.9092 395.02 92.9824 395.605 92.9336 396.143C93.1289 396.631 93.3242 396.826 93.5195 396.729C93.7637 396.631 94.0322 396.753 94.3252 397.095C94.5205 397.827 94.96 398.608 95.6436 399.438C96.376 400.22 96.9375 401.074 97.3281 402.002C97.4258 403.467 97.499 404.785 97.5479 405.957C97.6455 407.129 97.4502 408.276 96.9619 409.399C96.1318 411.548 94.9355 413.477 93.373 415.186C91.8105 416.895 90.0283 418.408 88.0264 419.727C86.0732 420.996 83.998 422.119 81.8008 423.096C79.6035 424.023 77.4307 424.805 75.2822 425.439C75.0869 425.391 74.8428 425.391 74.5498 425.439C74.3057 425.488 74.2568 425.342 74.4033 425C73.9639 425.391 73.4512 425.635 72.8652 425.732C72.3281 425.83 71.7178 425.854 71.0342 425.806C70.3994 425.806 69.7402 425.781 69.0566 425.732C68.4219 425.684 67.7871 425.708 67.1523 425.806C66.7617 425.415 66.3955 425.024 66.0537 424.634C65.7607 424.243 65.5166 423.779 65.3213 423.242C65.0771 423.193 64.9551 423.047 64.9551 422.803C65.0039 422.51 64.9062 422.363 64.6621 422.363C64.6621 422.168 64.6865 422.021 64.7354 421.924C64.7842 421.826 64.833 421.729 64.8818 421.631C65.0771 421.484 65.1504 421.387 65.1016 421.338C65.1016 421.24 65.0283 421.167 64.8818 421.118C64.7842 421.02 64.6621 420.923 64.5156 420.825C64.418 420.728 64.3936 420.605 64.4424 420.459C64.6865 420.02 64.7598 419.507 64.6621 418.921C64.6133 418.286 64.5645 417.651 64.5156 417.017C64.4668 416.382 64.5156 415.796 64.6621 415.259C64.8086 414.673 65.2236 414.185 65.9072 413.794C67.9092 413.989 69.7891 413.892 71.5469 413.501C73.3535 413.11 75.0381 412.573 76.6006 411.89C78.2119 411.206 79.7256 410.474 81.1416 409.692C82.6064 408.862 84.0225 408.105 85.3896 407.422C85.5361 406.934 85.7559 406.519 86.0488 406.177C86.3906 405.835 86.7324 405.518 87.0742 405.225C87.416 404.883 87.7334 404.541 88.0264 404.199C88.3193 403.809 88.5391 403.345 88.6855 402.808C88.7344 402.612 88.7344 402.466 88.6855 402.368C88.6367 402.27 88.5635 402.197 88.4658 402.148C88.3682 402.051 88.2705 401.953 88.1729 401.855C88.0752 401.758 88.0264 401.611 88.0264 401.416C87.8799 401.367 87.7334 401.318 87.5869 401.27C87.4893 401.221 87.3916 401.196 87.2939 401.196C86.0244 400.562 84.6816 400.024 83.2656 399.585C81.8496 399.145 80.6533 398.657 79.6768 398.12C79.0908 398.511 78.5049 398.608 77.9189 398.413C77.333 398.218 76.625 398.022 75.7949 397.827C73.7441 397.729 71.791 397.534 69.9355 397.241C68.1289 396.948 66.3711 396.436 64.6621 395.703C64.5645 395.41 64.4424 395.166 64.2959 394.971C64.1494 394.727 63.8076 394.653 63.2705 394.751C62.9287 394.263 62.5625 393.823 62.1719 393.433C61.8301 392.993 61.5127 392.505 61.2197 391.968Z" fill="black"/>
</svg>
